PathFileType	4	(X/Y/Z)	D:\TRACE\spotREDO_2-26-24\spot_justArm_Motion_2_1-platform.trc
DataRate	CameraRate	NumFrames	NumMarkers	Units	OrigDataRate	OrigDataStartFrame	OrigNumFrames
100.00	100.00	      48	5	mm	100.00	5251	      7000
Frame#	Time	Left_Front			Right_Front			Left_Aft			Right_Aft			Post			
		X1	Y1	Z1	X2	Y2	Z2	X3	Y3	Z3	X4	Y4	Z4	X5	Y5	Z5	

5251	52.500	-667.89301	49.76125	-558.99426	747.12158	51.54515	-474.83163	-738.16101	-51.81843	655.90417	830.91901	-45.89482	659.41278	41.10415	711.84863	-906.58185	
5252	52.510	-668.39514	49.46604	-559.16504	745.91156	51.09465	-475.14636	-738.95685	-51.48497	655.76099	830.15997	-45.42060	659.50208	40.53117	711.41241	-907.24927	
5253	52.520	-669.51508	49.04491	-559.47809	745.22784	50.72774	-475.29782	-740.09930	-50.87240	655.62671	829.26471	-44.99663	659.57568	39.93604	711.00348	-908.29132	
5254	52.530	-670.53986	48.53111	-559.56445	744.39044	50.41796	-475.47235	-741.01746	-50.50128	655.72144	828.26575	-44.48464	659.63196	39.10245	710.13593	-909.03479	
5255	52.540	-671.34827	48.10389	-559.79382	743.29797	49.79524	-475.70398	-741.75995	-50.03168	655.61731	827.26740	-43.70250	659.51337	37.91198	709.31824	-909.95380	
5256	52.550	-672.39587	47.60572	-560.07983	742.44714	49.50854	-475.70218	-742.82312	-49.29282	655.49591	826.49017	-43.24314	659.13055	37.09655	708.17114	-910.75928	
5257	52.560	-673.23273	47.12342	-560.20117	741.71179	49.09364	-476.03311	-743.81421	-48.74794	655.40283	825.69165	-42.59685	658.92120	35.98144	707.26178	-911.96625	
5258	52.570	-674.13818	46.39833	-560.49292	740.56622	48.52755	-476.16678	-744.70825	-48.14514	655.27704	824.63000	-42.00391	659.04218	34.99804	706.11389	-912.61823	
5259	52.580	-675.05762	45.68825	-560.59161	739.75073	47.82341	-476.31506	-745.59344	-47.42378	655.03418	823.49353	-41.34307	659.07806	33.75286	705.18292	-913.64362	
5260	52.590	-676.16559	45.01924	-560.88098	738.78607	47.32632	-476.52612	-746.54065	-46.82239	654.84241	822.52948	-40.70118	658.82849	33.16429	704.20905	-914.32104	
5261	52.600	-676.83716	44.47175	-561.04791	737.67291	46.65090	-476.94751	-747.71130	-46.08167	654.70612	821.71460	-40.05624	658.90619	31.88930	703.08093	-915.20251	
5262	52.610	-678.19897	43.85370	-561.33258	736.53253	46.23242	-477.16492	-748.72693	-45.34706	654.60022	820.56018	-39.28720	658.59033	30.67274	701.78943	-915.87347	
5263	52.620	-679.12567	43.07675	-561.55499	735.61926	45.62663	-477.19305	-749.74524	-44.64589	654.57172	819.66876	-38.37193	658.30426	29.79004	700.84796	-916.92346	
5264	52.630	-680.17847	42.12067	-561.72668	734.61237	44.85443	-477.55588	-750.82080	-43.74600	654.32965	818.58124	-37.55655	658.22400	28.76533	699.44525	-917.82495	
5265	52.640	-680.83710	41.31074	-562.09973	733.49805	44.26161	-477.76706	-751.66858	-43.10936	654.08209	817.72241	-37.01446	658.07245	27.72187	698.18091	-918.90894	
5266	52.650	-682.22742	40.68030	-562.38794	732.50220	43.40675	-478.02032	-753.03546	-42.25313	654.08447	816.42780	-36.20473	657.89258	26.86587	697.03558	-920.12134	
5267	52.660	-683.24280	39.98144	-562.63342	731.80359	42.79075	-478.33340	-753.83722	-41.36438	653.91669	815.55890	-35.26998	657.75159	25.73563	695.61176	-921.30457	
5268	52.670	-684.27338	39.14539	-562.90491	730.47107	42.11053	-478.47144	-755.02606	-40.23796	653.92834	814.28912	-34.28502	657.57056	24.49585	694.37958	-922.78412	
5269	52.680	-685.22620	37.99152	-563.18567	729.49786	41.50615	-479.01572	-755.95752	-39.65395	653.74274	813.30737	-33.43099	657.42444	23.62142	692.91364	-924.24567	
5270	52.690	-686.53131	37.46711	-563.48883	728.32220	40.72972	-479.08325	-757.23053	-38.55745	653.40314	812.28790	-32.44211	657.45587	22.69769	691.49878	-925.44342	
5271	52.700	-687.62207	36.64744	-563.76593	727.22333	39.71227	-479.48526	-758.21008	-37.69884	653.26947	811.09991	-31.50223	657.15277	21.48247	690.14301	-926.96448	
5272	52.710	-688.57330	35.63898	-564.16101	726.14783	39.28389	-479.68805	-759.38684	-36.64426	653.10980	810.05334	-30.26030	657.03113	20.50981	688.67773	-928.50409	
5273	52.720	-689.58331	34.54280	-564.29034	724.96570	38.12437	-480.05658	-760.39117	-35.69578	652.82965	808.72357	-29.54923	656.67493	19.31349	687.09595	-929.69305	
5274	52.730	-690.85077	33.74041	-564.70795	723.87952	37.70333	-480.45068	-761.47339	-34.65523	652.62402	807.83167	-28.68579	656.38281	18.29821	685.52490	-930.97778	
5275	52.740	-692.07129	32.95248	-564.97791	722.75146	36.70093	-480.75577	-762.82135	-33.58447	652.45624	806.74072	-27.57199	656.19470	16.97431	683.87689	-932.30725	
5276	52.750	-692.87506	31.56547	-565.31073	721.77802	35.62181	-480.91544	-763.71130	-32.50126	652.16931	805.51801	-26.62312	656.17877	16.12503	682.33124	-933.55511	
5277	52.760	-694.14954	30.57001	-565.60425	720.42407	34.68251	-481.28928	-764.84753	-31.46060	651.91895	804.45953	-25.19110	656.00458	15.25250	680.52167	-934.74152	
5278	52.770	-695.38257	29.88407	-565.95691	719.81604	33.97068	-481.61340	-765.80231	-30.21437	651.75543	803.40759	-24.00926	655.77496	14.05700	678.90393	-936.28882	
5279	52.780	-696.53064	28.49022	-566.32788	718.05878	33.01986	-482.04706	-767.01227	-29.23889	651.52423	802.30286	-23.11731	655.75049	12.82326	677.23785	-937.65747	
5280	52.790	-697.44232	27.48588	-566.58167	717.52625	32.03357	-482.13992	-768.34961	-28.33227	651.36945	801.05341	-22.13374	655.19354	11.38110	675.59888	-939.27820	
5281	52.800	-698.69141	26.59258	-567.04944	716.39276	30.97124	-482.19778	-769.22925	-27.04051	651.08337	799.78668	-20.78049	655.13135	10.60454	673.74811	-940.77441	
5282	52.810	-699.86957	25.41437	-567.30286	715.08734	30.22521	-482.98605	-770.41962	-25.93157	650.89807	798.63342	-19.54449	654.96252	9.51635	671.94611	-942.28540	
5283	52.820	-701.06421	24.20001	-567.58923	713.85034	29.05545	-483.22720	-771.60901	-24.55916	650.67181	797.62714	-18.39479	654.72070	8.50906	670.12433	-944.15973	
5284	52.830	-702.01819	23.11154	-568.09113	712.82916	28.24195	-483.63516	-772.78912	-23.44840	650.41815	796.37140	-17.39594	654.10474	7.11409	668.27930	-945.77740	
5285	52.840	-703.06891	21.89495	-568.47223	711.47552	27.19525	-483.82510	-774.07715	-22.17672	650.04327	795.28027	-16.57849	654.04309	6.57231	666.47516	-947.54285	
5286	52.850	-704.27191	20.74264	-568.64075	710.77625	26.25988	-484.10739	-775.13306	-21.09817	650.00989	794.04095	-14.79494	653.99921	5.34323	664.75702	-949.36304	
5287	52.860	-705.63391	19.74152	-569.12201	709.04144	25.28209	-484.85303	-776.16028	-19.75562	649.50134	792.89764	-13.58619	653.67810	4.32435	663.00842	-950.97839	
5288	52.870	-706.41101	18.37708	-569.27765	708.30176	24.45337	-485.00656	-777.21503	-18.61529	649.24597	791.91895	-12.20437	653.43695	3.76157	661.27734	-952.49866	
5289	52.880	-707.67004	17.46613	-569.89264	707.27820	23.09458	-485.27359	-778.55072	-17.23723	648.91705	790.56879	-11.08580	653.02271	2.04098	659.23804	-954.13666	
5290	52.890	-708.89679	16.21372	-570.28802	705.93573	22.04880	-485.68765	-779.51874	-16.12664	648.73962	789.50165	-10.02808	652.52441	0.59313	656.80212	-955.49811	
5291	52.900	-710.01086	14.82841	-570.38947	704.85571	21.16527	-486.06613	-780.88708	-14.70937	648.43109	788.39777	-8.62677	652.34253	-0.80567	654.72937	-957.04132	
5292	52.910	-710.89142	13.51295	-570.70740	703.78754	19.87293	-486.27695	-781.92603	-13.41080	648.10834	787.25830	-7.46747	652.03412	-1.79527	652.72998	-958.58978	
5293	52.920	-712.13080	12.42099	-571.21869	702.67377	18.95484	-486.77231	-783.04181	-12.36788	647.76807	786.10229	-5.98251	651.94647	-2.33963	650.59753	-960.02368	
5294	52.930	-713.44653	11.25028	-571.55725	701.57251	17.72364	-487.03714	-784.18109	-11.19430	647.43286	785.05011	-4.75419	651.71521	-3.84330	648.62970	-961.88538	
5295	52.940	-714.36536	9.99169	-571.87628	700.39819	16.99126	-487.41519	-785.37317	-9.74871	647.06824	783.95398	-3.43470	651.46338	-4.92735	646.51874	-963.59076	
5296	52.950	-715.12091	8.44408	-572.23676	699.09839	15.79147	-487.92264	-786.27399	-8.48280	646.86902	783.02142	-2.22313	650.95129	-3.76989	644.31720	-965.41479	
5297	52.960	-716.35785	7.52750	-572.69348	698.56458	14.66591	-487.94617	-787.68213	-6.98029	646.48621	781.62750	-0.93485	650.81232	-5.70467	642.34387	-967.64386	
5298	52.970	-717.57062	6.29954	-572.94073	696.87085	13.64588	-488.52924	-788.45996	-5.88123	646.26904	780.42957	0.36900	650.31366	-7.07658	640.12024	-969.07959	
